<svg version="1" xmlns="http://www.w3.org/2000/svg" width="136" height="136" viewBox="0 0 102.000000 102.000000"><path d="M20 12.5V15H-.3l.6 6.3c1.6 18.1 11.3 30.1 25 31.1 5.3.4 6.3.9 10.6 4.9 2.6 2.5 5.7 4.8 6.9 5.1 2 .7 2.2 1.4 2.2 8.2 0 5.4-.3 7.4-1.2 7.3-.7-.1-4.1-.1-7.5 0L30 78v4.5c0 4.1-.2 4.5-2.5 4.5-2 0-2.5.5-2.5 2.5V92l25.8-.2 25.7-.3.3-2.3c.3-1.8-.1-2.2-2.2-2.2-2.6 0-3.2-1.7-2.7-7.3.2-1.5-.7-1.7-7.3-1.7H57v-7.3c0-6.9.2-7.5 2.5-8.5 1.4-.6 4.4-2.9 6.7-5.1 3.5-3.2 5.3-4 9.8-4.5 15.3-1.8 23.9-12.4 25.6-31.4l.6-6.2H81.3l.5-2.5.4-2.5H20v2.5zm-.9 9.4c1.2.1 1.8 1.5 2.2 5 .3 2.8 1.7 8.2 3 12 1.4 3.9 2.2 7.1 1.8 7.1-.3 0-2.2-.5-4.2-1-5.6-1.6-10.6-7.3-12.9-14.8-1.1-3.5-2-6.8-2-7.2 0-1.4 2.5-1.6 12.1-1.1zm75.3 3.6c-.9 5.5-4 11.9-7.5 15.3-2.8 2.7-10.5 5.9-11.6 4.9-.2-.3.2-1.8 1.1-3.5 1.3-2.5 3.2-9.4 5-18.2.5-2.4.9-2.5 7.1-2.5h6.6l-.7 4z"/></svg>